Coordinates
version=1
nRows=21
nColumns=22
inDegrees=yes

Units are S.I. units (second, meters, Newtons, ...)
If the header above contains a line with 'inDegrees', this indicates whether rotational values are in degrees (yes) or radians (no).

endheader
time	pelvis_tilt	pelvis_list	pelvis_rotation	pelvis_tx	pelvis_ty	pelvis_tz	hip_flexion_r	hip_adduction_r	hip_rotation_r	knee_angle_r	ankle_angle_r	subtalar_angle_r	hip_flexion_l	hip_adduction_l	hip_rotation_l	knee_angle_l	ankle_angle_l	subtalar_angle_l	lumbar_extension	lumbar_bending	lumbar_rotation
      1.58000000	     -3.87617273	     -4.35068994	      0.69008586	     -1.68059184	      1.01101924	     -0.06365557	      4.11345071	      3.73911480	     -3.96951088	    -12.71804532	      9.34156286	     -0.10130265	      0.47855157	     -8.12557019	    -13.02730049	     -7.59249318	     10.17221409	      2.44375273	     -1.08945206	      2.23856115	     -1.29629210
      1.59000000	     -3.98520713	     -4.31585875	      0.63237942	     -1.68058293	      1.01079443	     -0.06282793	      4.38677330	      3.74674613	     -3.92558342	    -13.01848208	      9.47434436	     -0.21659937	      0.58943979	     -8.14170551	    -13.05776344	     -7.61133784	     10.17224895	      2.53949463	     -1.03070777	      2.22221120	     -1.28418995
      1.60000000	     -4.09425827	     -4.28083057	      0.58792115	     -1.68057650	      1.01056497	     -0.06195525	      4.65040641	      3.75855838	     -3.88447695	    -13.30179685	      9.58300591	     -0.33752577	      0.71792590	     -8.16400113	    -13.06686134	     -7.65942891	     10.17619594	      2.64766477	     -0.97662358	      2.20399681	     -1.27980516
      1.61000000	     -4.17287692	     -4.24597100	      0.55494872	     -1.68049379	      1.01036319	     -0.06105086	      4.85895475	      3.77334000	     -3.85244965	    -13.55543559	      9.74006077	     -0.43739892	      0.80179663	     -8.18750842	    -13.08513158	     -7.68601377	     10.18302992	      2.73099016	     -0.95182010	      2.19092851	     -1.30356634
      1.62000000	     -4.25123660	     -4.21277914	      0.53535016	     -1.68039126	      1.01015562	     -0.06010071	      5.05332418	      3.79325603	     -3.82439538	    -13.78728432	      9.87520326	     -0.53524204	      0.89977906	     -8.21915309	    -13.08360908	     -7.73795201	     10.19155503	      2.82819454	     -0.92804457	      2.17793190	     -1.33424222
      1.63000000	     -4.32515193	     -4.17865645	      0.53125730	     -1.68026758	      1.00995361	     -0.05911148	      5.22412002	      3.81548315	     -3.79903455	    -13.98763422	      9.98571419	     -0.63202553	      1.00818779	     -8.25578482	    -13.06590101	     -7.81506502	     10.20501596	      2.94806328	     -0.91171749	      2.16288905	     -1.36913795
      1.64000000	     -4.37448186	     -4.14967118	      0.53841582	     -1.68006252	      1.00977732	     -0.05808541	      5.34538490	      3.84570068	     -3.78027574	    -14.15540290	     10.11365627	     -0.71221350	      1.08621792	     -8.30110796	    -13.04708455	     -7.88861369	     10.22252079	      3.06078335	     -0.91592868	      2.15685035	     -1.41977397
      1.65000000	     -4.38518497	     -4.13074801	      0.55565406	     -1.67978244	      1.00965449	     -0.05701815	      5.39781174	      3.89065480	     -3.75574135	    -14.28144781	     10.24845130	     -0.75844711	      1.12248384	     -8.36093695	    -13.02234507	     -7.96474685	     10.22337880	      3.11784311	     -0.96075854	      2.16449844	     -1.46766076
      1.66000000	     -4.44039392	     -4.09644260	      0.58125932	     -1.67948765	      1.00946199	     -0.05590215	      5.49922483	      3.91980917	     -3.74584939	    -14.41253912	     10.35680243	     -0.84239942	      1.22900657	     -8.41225417	    -12.98951359	     -8.08242203	     10.27206002	      3.30374537	     -0.95035799	      2.15349963	     -1.53576310
      1.67000000	     -4.43847972	     -4.07749504	      0.60866308	     -1.67909544	      1.00935160	     -0.05473012	      5.50839633	      3.97170991	     -3.71140944	    -14.49624215	     10.48624568	     -0.88148709	      1.26886228	     -8.48387683	    -12.96219626	     -8.19804397	     10.28255516	      3.36583948	     -0.99957235	      2.16231653	     -1.58744699
      1.68000000	     -4.44646654	     -4.05802192	      0.64331472	     -1.67866858	      1.00921737	     -0.05350848	      5.52556276	      4.02522195	     -3.68563589	    -14.57957565	     10.61262987	     -0.93268754	      1.34100840	     -8.56336452	    -12.92716716	     -8.35648262	     10.33139730	      3.48315529	     -1.03370318	      2.17235741	     -1.64794584
      1.69000000	     -4.47546073	     -4.04557179	      0.67221419	     -1.67822637	      1.00905320	     -0.05221769	      5.57244002	      4.08903653	     -3.66199622	    -14.67601182	     10.68514407	     -1.00075150	      1.45775161	     -8.65941168	    -12.87886441	     -8.56195763	     10.41569875	      3.71547916	     -1.04262862	      2.19223569	     -1.69613064
      1.70000000	     -4.46623525	     -4.02542595	      0.69909979	     -1.67769558	      1.00894228	     -0.05085995	      5.55054021	      4.15263464	     -3.59633226	    -14.73117426	     10.80764087	     -1.04028582	      1.53787482	     -8.75279972	    -12.84751935	     -8.78264966	     10.44074898	      3.79579303	     -1.08921285	      2.20429100	     -1.74929169
      1.71000000	     -4.50832215	     -4.03050362	      0.72527062	     -1.67719011	      1.00874531	     -0.04942325	      5.60409950	      4.24569852	     -3.54871658	    -14.81936655	     10.86308865	     -1.11543981	      1.72091002	     -8.88843410	    -12.79630876	     -9.09328426	     10.55792688	      4.06643646	     -1.07774340	      2.24281406	     -1.77765371
      1.72000000	     -4.51653548	     -4.03492327	      0.74739066	     -1.67662006	      1.00858097	     -0.04792154	      5.60520760	      4.34371075	     -3.49161878	    -14.88400516	     10.97572622	     -1.17078144	      1.88722319	     -9.03162608	    -12.74671192	     -9.44865864	     10.66943930	      4.20435371	     -1.10403387	      2.28187063	     -1.78992251
      1.73000000	     -4.56224474	     -4.05093152	      0.76335788	     -1.67607589	      1.00835651	     -0.04633196	      5.66052081	      4.46009696	     -3.40970058	    -14.97249355	     11.03309778	     -1.23909847	      2.13879268	     -9.20099586	    -12.68071971	     -9.88706048	     10.79484576	      4.42423428	     -1.09306797	      2.33493740	     -1.81708194
      1.74000000	     -4.58943104	     -4.07748260	      0.77852500	     -1.67547539	      1.00813237	     -0.04468237	      5.68011267	      4.59167838	     -3.33600181	    -15.03620772	     11.13664358	     -1.30025077	      2.41083137	     -9.39406878	    -12.60940244	    -10.40805232	     10.95207180	      4.58456213	     -1.10041302	      2.39972379	     -1.82176054
      1.75000000	     -4.64421801	     -4.12258061	      0.79233731	     -1.67489917	      1.00785204	     -0.04296291	      5.73801337	      4.74758254	     -3.25117949	    -15.11255189	     11.20571198	     -1.36483388	      2.77172079	     -9.62191052	    -12.51311728	    -11.03646680	     11.13236368	      4.78539393	     -1.08388090	      2.48600417	     -1.82742992
      1.76000000	     -4.73671037	     -4.17260420	      0.80113734	     -1.67436953	      1.00750272	     -0.04117938	      5.85595552	      4.91194180	     -3.15132474	    -15.22158276	     11.22856427	     -1.43888140	      3.23536954	     -9.86777938	    -12.37619792	    -11.77636117	     11.31118414	      5.06381147	     -1.03413306	      2.58012124	     -1.83726111
      1.77000000	     -4.80967548	     -4.24117022	      0.81648460	     -1.67380297	      1.00714725	     -0.03934933	      5.93497021	      5.09985696	     -3.06471995	    -15.29871785	     11.28698460	     -1.50226578	      3.74328151	    -10.14772816	    -12.22103403	    -12.63699637	     11.51584010	      5.29136466	     -1.01098584	      2.69276238	     -1.83686891
      1.78000000	     -4.88260354	     -4.32799748	      0.83851123	     -1.67323793	      1.00676279	     -0.03748916	      6.01022845	      5.30838913	     -2.98703302	    -15.36823874	     11.34634938	     -1.55866873	      4.32733919	    -10.45996638	    -12.02942021	    -13.63200820	     11.72893312	      5.50185441	     -0.99525757	      2.82808895	     -1.83239559
